<svg width="105" height="79" viewBox="0 0 105 79" fill="none" xmlns="http://www.w3.org/2000/svg">
<path d="M30.9541 17.5221C40.7786 17.5223 48.9521 25.8588 48.9521 36.4059C48.9521 46.953 40.7787 55.2894 30.9541 55.2896C21.1293 55.2896 12.9551 46.9531 12.9551 36.4059C12.9552 25.8586 21.1294 17.5221 30.9541 17.5221Z" stroke="#E1A801" stroke-width="6"/>
<path d="M30.9531 58.29C44.1771 58.29 55.6367 66.1383 61.2549 77.5966C53.8798 68.4112 43.1356 62.623 31.1699 62.623C18.6044 62.623 7.38415 69.0044 0 79.0019C5.34722 66.7848 17.1953 58.2901 30.9531 58.29Z" fill="#E1A801"/>
<path d="M74.7041 3C84.5286 3.00024 92.7021 11.3367 92.7021 21.8838C92.7021 32.4309 84.5287 40.7673 74.7041 40.7676C64.8793 40.7676 56.7051 32.4311 56.7051 21.8838C56.7052 11.3366 64.8794 3 74.7041 3Z" stroke="#E1A801" stroke-width="6"/>
<path d="M74.7031 43.7679C87.9271 43.7679 99.3867 51.6162 105.005 63.0746C97.6298 53.8891 86.8856 48.1009 74.9199 48.1009C62.3544 48.1009 51.1342 54.4823 43.75 64.4798C49.0972 52.2627 60.9453 43.7681 74.7031 43.7679Z" fill="#E1A801"/>
</svg>
