<svg width="102" height="82" viewBox="0 0 102 82" fill="none" xmlns="http://www.w3.org/2000/svg">
<path d="M41.2637 17.3936H62.7207C64.2714 17.3936 65.7161 18.2919 68.1592 19.9444C70.2343 21.348 73.3121 23.5112 77.1328 23.2813C79.1007 23.1627 80.6848 21.9697 81.8828 20.8682C84.2469 18.6946 86.8684 17.3937 89.5283 17.3936C94.7593 17.3936 99 21.6343 99 26.8653V67.0001C99 73.6274 93.6274 79.0001 87 79.0001H15C8.3726 79.0001 3.00003 73.6274 3 67.0001V27.2491C3 21.8062 7.4126 17.3936 12.8555 17.3936C14.4509 17.3937 15.9551 17.953 17.6152 18.9883C19.3706 20.0831 20.9282 21.4485 22.957 23.0313C23.9818 23.8308 25.295 24.4121 26.8496 24.2842C28.3068 24.1643 29.5097 23.4541 30.4512 22.6915C34.2816 19.5885 37.5738 17.3936 41.2637 17.3936Z" stroke="#E1A801" stroke-width="6"/>
<path d="M2.5 16.1383C8.63799 16.1383 14.3413 16.1383 19.75 16.1383C25.036 23.9698 30.4165 23.666 36 16.1383C47.3767 16.1383 57.9742 16.1383 69.5 16.1383C74.9113 24.136 80.1364 24.1723 85.25 16.1383C89.9115 16.1383 94.7997 16.1383 100 16.1383V34.4575H2.5V16.1383Z" fill="#E1A801"/>
<rect x="9" y="38.383" width="16.5" height="9.59575" fill="#E1A801"/>
<rect x="9" y="51.9043" width="16.5" height="9.59575" fill="#E1A801"/>
<rect x="9" y="65.4255" width="16.5" height="9.59575" fill="#E1A801"/>
<rect x="31.5" y="38.383" width="16.5" height="9.59575" fill="#E1A801"/>
<rect x="31.5" y="51.9043" width="16.5" height="9.59575" fill="#E1A801"/>
<rect x="31.5" y="65.4255" width="16.5" height="9.59575" fill="#E1A801"/>
<rect x="54" y="38.383" width="16.5" height="9.59575" fill="#E1A801"/>
<rect x="54" y="51.9043" width="16.5" height="9.59575" fill="#E1A801"/>
<rect x="54" y="65.4255" width="16.5" height="9.59575" fill="#E1A801"/>
<rect x="76.5" y="38.383" width="16.5" height="9.59575" fill="#E1A801"/>
<rect x="76.5" y="51.9043" width="16.5" height="9.59575" fill="#E1A801"/>
<rect x="76.5" y="65.4255" width="16.5" height="9.59575" fill="#E1A801"/>
<path d="M21.6384 4.42539C22.1998 2.2446 24.2363 0.872345 26.4882 0.872345C28.9999 0.872345 31.1984 2.57339 31.6329 5.04724C32.3729 9.26101 32.9937 15.3206 30.7578 16.5745C27.2578 18.5372 27.2578 20.9362 22.7578 16.5745C19.8774 13.7826 20.6844 8.13157 21.6384 4.42539Z" fill="#E1A801"/>
<path d="M72.3806 3.55304C72.942 1.37225 74.9785 0 77.2304 0C79.7421 0 81.9406 1.70105 82.375 4.1749C83.1151 8.38866 83.7358 14.4483 81.5 15.7021C78 17.6649 78 20.0638 73.5 15.7021C70.6196 12.9103 71.4266 7.25922 72.3806 3.55304Z" fill="#E1A801"/>
</svg>
